<svg xmlns="http://www.w3.org/2000/svg" xmlns:xlink="http://www.w3.org/1999/xlink" width="29.556" height="37.69" viewBox="0 0 29.556 37.69"><defs><style>.a{fill:inherit;}</style><linearGradient id="a" x1="0.5" x2="0.5" y2="1" gradientUnits="objectBoundingBox"><stop offset="0" stop-color="#ee6946"/><stop offset="1" stop-color="#ed7d40"/></linearGradient></defs><path class="a" d="M62.315,13.141H58.62V10H56.158v3.141H52.463L50,19.423v3.141H64.778V19.423Zm-9.561,6.282,1.232-3.141h6.807l1.232,3.141Z" transform="translate(-35.222 -10)"/><path class="a" d="M30.722,63.333H23.333v3.141H25.8V75.9h2.463V66.474h2.463Z" transform="translate(-18.407 -38.206)"/><path class="a" d="M19.852,42.949V39.808H17.389v3.141H15.542l.616-6.282H12.463l.616,6.282H10V46.09H24.778v15.7H39.556V42.949Zm17.241,15.7H27.241V46.09h9.852Z" transform="translate(-10 -24.103)"/><rect class="a" width="6.157" height="4.711" transform="translate(19.088 27.482)"/><ellipse class="a" cx="0.616" cy="0.785" rx="0.616" ry="0.785" transform="translate(19.088 24.341)"/><ellipse class="a" cx="0.616" cy="0.785" rx="0.616" ry="0.785" transform="translate(24.014 24.341)"/><ellipse class="a" cx="0.616" cy="0.785" rx="0.616" ry="0.785" transform="translate(21.551 24.341)"/></svg>