<svg xmlns="http://www.w3.org/2000/svg" xmlns:xlink="http://www.w3.org/1999/xlink" width="27.556" height="27.556" viewBox="0 0 27.556 27.556"><defs><style>.a{fill:inherit;}</style><linearGradient id="a" x1="0.5" x2="0.5" y2="1" gradientUnits="objectBoundingBox"><stop offset="0" stop-color="#ee6946"/><stop offset="1" stop-color="#ed7d40"/></linearGradient></defs><path class="a" d="M28.718,23.778l-.383-2.3h2.332a1.152,1.152,0,0,0,1.148-1.148V11.148A1.151,1.151,0,0,0,30.667,10H16.889a1.151,1.151,0,0,0-1.148,1.148v9.185a1.152,1.152,0,0,0,1.148,1.148h2.332l-.382,2.3H10v2.3h2.3V37.556h2.3V26.074h3.863L18.068,28.4a1.885,1.885,0,0,0,1.918,2.265h.347l-1.148,6.889h2.328l1.148-6.889h2.233l1.148,6.889H28.37l-1.148-6.889h.348A1.885,1.885,0,0,0,29.488,28.4L29.1,26.074h3.863V37.556h2.3V26.074h2.3v-2.3ZM20.4,28.37l1.531-9.185h3.692l1.53,9.185Zm7.357-10.349a1.405,1.405,0,0,0-1.336-1.133H21.135A1.405,1.405,0,0,0,19.8,18.021L19.6,19.185H18.037V12.3H29.519v6.889H27.952Z" transform="translate(-10 -10)"/></svg>