<svg xmlns="http://www.w3.org/2000/svg" xmlns:xlink="http://www.w3.org/1999/xlink" width="27.538" height="21.608" viewBox="0 0 27.538 21.608"><defs><style>.a{fill:url(#a);}</style><linearGradient id="a" x1="0.316" y1="0.761" x2="1.148" y2="-0.214" gradientUnits="objectBoundingBox"><stop offset="0" stop-color="#ee6946"/><stop offset="1" stop-color="#ed7d40"/></linearGradient></defs><g transform="translate(-3009.561 -2550.418)"><path class="a" d="M3029.825,2557.188h-19.048a1.215,1.215,0,0,0-1.215,1.216v13.691a1.215,1.215,0,0,0,1.215,1.216h19.048a1.216,1.216,0,0,0,1.215-1.216V2558.4A1.216,1.216,0,0,0,3029.825,2557.188Zm-1.215,2.431v2.246h-16.618v-2.246Zm-16.618,11.261V2564.3h16.618v6.584Z" transform="translate(0 -1.285)"/><path class="a" d="M3037.3,2550.418h-19.05a1.216,1.216,0,0,0-1.216,1.215v2.387h2.431v-1.172h16.619v11.262h-1.257v2.431h2.472a1.216,1.216,0,0,0,1.215-1.216v-13.692A1.216,1.216,0,0,0,3037.3,2550.418Z" transform="translate(-1.418)"/></g></svg>