<svg xmlns="http://www.w3.org/2000/svg" xmlns:xlink="http://www.w3.org/1999/xlink" width="30" height="29.731" viewBox="0 0 30 29.731"><defs><style>.a{fill:url(#a);}</style><linearGradient id="a" x1="0.334" y1="0.932" x2="0.834" y2="0.185" gradientUnits="objectBoundingBox"><stop offset="0" stop-color="#ee6946"/><stop offset="1" stop-color="#ed7d40"/></linearGradient></defs><path class="a" d="M3081.952,2554.653l-1.933-3.179a3.4,3.4,0,0,0-6.146.757l-.5,1.625a1.219,1.219,0,0,1-.457.634l-3.509,2.5c-.024.016-.044.038-.067.054v-2.817a6.231,6.231,0,0,0-3.236-5.494,6.347,6.347,0,0,0-6.418.091l-3.208,1.916a3.349,3.349,0,0,0,.765,6.092l1.637.492a1.245,1.245,0,0,1,.643.454l2.521,3.478c.018.023.038.043.056.067h-2.844a6.3,6.3,0,0,0-5.543,3.207,6.193,6.193,0,0,0,.092,6.36l1.934,3.179a3.35,3.35,0,0,0,2.886,1.625,3.628,3.628,0,0,0,.435-.026,3.343,3.343,0,0,0,2.826-2.358l.5-1.624a1.213,1.213,0,0,1,.459-.633l3.507-2.5c.024-.017.045-.039.069-.056v2.819a6.227,6.227,0,0,0,3.235,5.493,6.341,6.341,0,0,0,6.418-.09l3.208-1.917a3.348,3.348,0,0,0-.765-6.091l-1.637-.492a1.238,1.238,0,0,1-.641-.456l-2.522-3.476c-.017-.024-.038-.044-.054-.068h2.843a6.306,6.306,0,0,0,5.544-3.207A6.189,6.189,0,0,0,3081.952,2554.653Zm-20.055,1.433a4.177,4.177,0,0,0-2.167-1.536l-1.637-.494a.46.46,0,0,1-.106-.837l3.208-1.916a3.435,3.435,0,0,1,3.471-.049,3.368,3.368,0,0,1,1.749,2.971v6.839a4.261,4.261,0,0,1-2-1.5Zm2.743,10.112-3.507,2.5a4.136,4.136,0,0,0-1.551,2.146l-.5,1.623a.469.469,0,0,1-.846.105l-1.934-3.179a3.346,3.346,0,0,1-.049-3.439,3.407,3.407,0,0,1,3-1.734h6.9A4.228,4.228,0,0,1,3064.64,2566.2Zm9.218,3.255a4.183,4.183,0,0,0,2.166,1.536l1.638.494a.46.46,0,0,1,.1.837l-3.208,1.916a3.435,3.435,0,0,1-3.47.048,3.366,3.366,0,0,1-1.748-2.97v-6.839a4.263,4.263,0,0,1,2,1.5Zm5.639-9.867a3.407,3.407,0,0,1-3,1.735h-6.9a4.235,4.235,0,0,1,1.513-1.98l3.51-2.5a4.128,4.128,0,0,0,1.548-2.144l.5-1.625a.467.467,0,0,1,.844-.1l1.935,3.179A3.345,3.345,0,0,1,3079.5,2559.587Z" transform="translate(-3052.878 -2547.905)"/></svg>