<svg xmlns="http://www.w3.org/2000/svg" width="29.943" height="31.271" viewBox="0 0 29.943 31.271"><defs><style>.a{opacity:0.39;}.b{fill:#88cdff;fill-rule:evenodd;}.b,.c{stroke:#707070;stroke-miterlimit:10;stroke-width:2px;}.c{fill:none;}</style></defs><g class="a" transform="translate(29.466 31.27) rotate(180)"><g transform="translate(0 0)"><path class="b" d="M3365.425,2403.046v31.271" transform="translate(-3350.826 -2403.046)"/><path class="b" d="M3384.1,2408.194l-28.8,15.636" transform="translate(-3355.299 -2400.771)"/><path class="b" d="M3355.3,2408.1l28.8,15.635" transform="translate(-3355.298 -2400.812)"/><path class="c" d="M3362.145,2404.957l4.676,5.367,4.678-5.287" transform="translate(-3352.274 -2402.2)"/><path class="c" d="M3362.152,2424.9l4.677-5.366,4.678,5.285" transform="translate(-3352.273 -2395.763)"/><path class="c" d="M3373.111,2405.951l-2.309,6.734,6.916,1.407" transform="translate(-3348.451 -2401.761)"/><path class="c" d="M3377.6,2415.345l-6.987,1.367,2.239,6.694" transform="translate(-3348.533 -2397.614)"/><path class="c" d="M3360.536,2423.15l2.31-6.733-6.916-1.407" transform="translate(-3355.02 -2397.76)"/><path class="c" d="M3355.537,2414.358l6.987-1.368-2.24-6.691" transform="translate(-3355.194 -2401.608)"/></g></g></svg>