<svg xmlns="http://www.w3.org/2000/svg" xmlns:xlink="http://www.w3.org/1999/xlink" width="26.573" height="24.054" viewBox="0 0 26.573 24.054"><defs><style>.a{fill:url(#a);}</style><linearGradient id="a" x1="0.5" x2="0.5" y2="1" gradientUnits="objectBoundingBox"><stop offset="0" stop-color="#ee6946"/><stop offset="1" stop-color="#ed7d40"/></linearGradient></defs><g transform="translate(51.51 -248.068)"><g transform="translate(-48.374 260.502)"><path class="a" d="M-30.807,274.225H-44.579a3.269,3.269,0,0,1-3.265-3.265v-8.356h2.566v8.356a.7.7,0,0,0,.7.7h13.772a.7.7,0,0,0,.7-.7v-8.356h2.566v8.356A3.269,3.269,0,0,1-30.807,274.225Z" transform="translate(47.844 -262.605)"/></g><g transform="translate(-51.51 248.068)"><path class="a" d="M-49.926,260.508l-1.584-2.02,13.287-10.42,13.286,10.42-1.584,2.02-11.7-9.179Z" transform="translate(51.51 -248.068)"/></g></g></svg>