<!-- Generator: Adobe Illustrator 24.1.3, SVG Export Plug-In  -->
<svg version="1.1" xmlns="http://www.w3.org/2000/svg" xmlns:xlink="http://www.w3.org/1999/xlink" x="0px" y="0px" width="17.6px"
	 height="18.2px" viewBox="0 0 17.6 18.2" style="overflow:visible;enable-background:new 0 0 17.6 18.2;" xml:space="preserve">
<style type="text/css">
	.st0{fill:none;}
	.st1{fill:#C35637;}
	.st2{fill:none;stroke:#C35637;stroke-width:1.5;stroke-miterlimit:4;}
	.st3{fill:none;stroke:#C35637;stroke-width:1.5;}
</style>
<defs>
</defs>
<g id="Grupo_214_1_" transform="translate(0 4.692) rotate(-17)">
	<g id="Caminho_135_1_">
		<path class="st0" d="M0,0l16,0l0,5.6l-16,0L0,0z"/>
		<path class="st1" d="M1.5,1.5l0,2.6l13,0V1.5L1.5,1.5 M0,0l16,0l0,5.6l-16,0L0,0z"/>
	</g>
	<g id="Grupo_213_1_" transform="translate(3.236 0.573)">
		<line id="Linha_38_1_" class="st2" x1="0" y1="4.3" x2="2.9" y2="0"/>
		<line id="Linha_40_1_" class="st2" x1="3.4" y1="4.2" x2="6.3" y2="0"/>
		<line id="Linha_41_1_" class="st2" x1="6.9" y1="4.2" x2="9.7" y2="0"/>
	</g>
</g>
<g id="Grupo_216_1_" transform="translate(1.406 8.741)">
	<g id="Grupo_215_1_" transform="translate(0 0)">
		<g id="Retângulo_74_1_">
			<rect x="0" y="0" class="st0" width="16.2" height="9.5"/>
			<rect x="0.8" y="0.7" class="st3" width="14.7" height="8"/>
		</g>
		<line id="Linha_42_1_" class="st3" x1="0.1" y1="4.4" x2="15.4" y2="4.4"/>
	</g>
</g>
</svg>
