<svg xmlns="http://www.w3.org/2000/svg" width="16.506" height="16.507" viewBox="0 0 16.506 16.507">
  <g id="icon-tab-comodos" transform="translate(0 0)">
    <path id="Caminho_119" data-name="Caminho 119" d="M-36.9,94.77H-48.721a2.348,2.348,0,0,0-2.344,2.345v11.817a2.347,2.347,0,0,0,2.344,2.344h1.333v-1.8h-1.333a.541.541,0,0,1-.54-.54v-4.618h2.594v-1.8H-49.26v-5.4a.541.541,0,0,1,.54-.54h3.839v1.311h1.8V96.575H-36.9a.541.541,0,0,1,.539.54v5.4h-6.713V100.2h-1.8v4.11h.253v0h1.969V105.7h1.8v-1.382h4.492v4.618a.54.54,0,0,1-.539.54h-3.953v-1.707h-1.8v1.707h-2.451v1.8H-36.9a2.347,2.347,0,0,0,2.344-2.344V97.115A2.347,2.347,0,0,0-36.9,94.77Z" transform="translate(51.065 -94.77)" fill="#c5593c"/>
  </g>
</svg>
