<svg xmlns="http://www.w3.org/2000/svg" xmlns:xlink="http://www.w3.org/1999/xlink" width="41" height="48.5" viewBox="0 0 41 48.5"><defs><style>.a{fill:inherit;}.b{fill:url(#d);}.c{fill:#744003;opacity:0.271;}.d{fill:#fff;}.e{fill:rgba(255,236,7,0.36);}.e,.j{opacity:0.576;}.f{opacity:0.005;}.g{fill:url(#g);}.h{fill:url(#p);}.i{fill:url(#s);}.j{fill:#343b43;}.k{filter:url(#q);}.l{filter:url(#n);}.m{filter:url(#k);}.n{filter:url(#h);}.o{filter:url(#e);}.p{filter:url(#b);}</style><linearGradient id="a" x1="0.28" y1="1" x2="0.734" y2="0.07" gradientUnits="objectBoundingBox"><stop offset="0" stop-color="#2f1313"/><stop offset="1" stop-color="#f3a319"/></linearGradient><filter id="b" x="0" y="4" width="41" height="44.5" filterUnits="userSpaceOnUse"><feOffset dy="17" input="SourceAlpha"/><feGaussianBlur stdDeviation="4.5" result="c"/><feFlood flood-opacity="0.251"/><feComposite operator="in" in2="c"/><feComposite in="SourceGraphic"/></filter><linearGradient id="d" x1="0.5" y1="0.917" x2="0.598" y2="0.277" gradientUnits="objectBoundingBox"><stop offset="0" stop-color="#d54026"/><stop offset="1" stop-color="#f08f1e"/></linearGradient><filter id="e" x="13" y="4.5" width="15" height="15" filterUnits="userSpaceOnUse"><feOffset dy="1" input="SourceAlpha"/><feGaussianBlur stdDeviation="0.5" result="f"/><feFlood flood-color="#9a3009" flood-opacity="0.706"/><feComposite operator="in" in2="f"/><feComposite in="SourceGraphic"/></filter><linearGradient id="g" x1="0.089" y1="0.96" x2="0.942" y2="0.063" gradientUnits="objectBoundingBox"><stop offset="0" stop-color="#030507"/><stop offset="1" stop-color="#2d343b"/></linearGradient><filter id="h" x="5.5" y="0" width="26" height="26" filterUnits="userSpaceOnUse"><feOffset dx="-2" dy="2" input="SourceAlpha"/><feGaussianBlur stdDeviation="2" result="i"/><feFlood flood-opacity="0.443"/><feComposite operator="in" in2="i"/><feComposite in="SourceGraphic"/></filter><filter id="k" x="12" y="3.5" width="17" height="17" filterUnits="userSpaceOnUse"><feOffset dy="1" input="SourceAlpha"/><feGaussianBlur stdDeviation="0.5" result="l"/><feFlood flood-opacity="0.482"/><feComposite operator="in" in2="l"/><feComposite in="SourceGraphic"/></filter><filter id="n" x="6" y="2.5" width="29" height="29" filterUnits="userSpaceOnUse"><feOffset dy="6" input="SourceAlpha"/><feGaussianBlur stdDeviation="2.5" result="o"/><feFlood flood-opacity="0.482"/><feComposite operator="in" in2="o"/><feComposite in="SourceGraphic"/></filter><linearGradient id="p" x1="0.28" y1="1" x2="0.734" y2="0.07" gradientUnits="objectBoundingBox"><stop offset="0"/><stop offset="1" stop-color="#4b4f53"/></linearGradient><filter id="q" x="0" y="4" width="41" height="44.5" filterUnits="userSpaceOnUse"><feOffset dy="17" input="SourceAlpha"/><feGaussianBlur stdDeviation="4.5" result="r"/><feFlood flood-opacity="0.251"/><feComposite operator="in" in2="r"/><feComposite in="SourceGraphic"/></filter><linearGradient id="s" x1="0.117" y1="0.885" x2="0.884" y2="0.125" gradientUnits="objectBoundingBox"><stop offset="0"/><stop offset="1" stop-color="#282e34"/></linearGradient></defs><g transform="translate(13.5 4)"><g class="p" transform="matrix(1, 0, 0, 1, -13.5, -4)"><rect class="a" width="14" height="14" rx="7" transform="translate(13.5 4)"/></g><g class="o" transform="matrix(1, 0, 0, 1, -13.5, -4)"><rect class="b" width="12" height="12" rx="6" transform="translate(14.5 5)"/></g><ellipse class="c" cx="1" cy="1.5" rx="1" ry="1.5" transform="translate(6 6)"/><circle class="d" cx="1" cy="1" r="1" transform="translate(6 6)"/><circle class="e" cx="5" cy="5" r="5" transform="translate(2 2)"/><g class="f"><g class="n" transform="matrix(1, 0, 0, 1, -13.5, -4)"><rect class="g" width="14" height="14" rx="7" transform="translate(13.5 4)"/></g><g class="m" transform="matrix(1, 0, 0, 1, -13.5, -4)"><rect class="g" width="14" height="14" rx="7" transform="translate(13.5 4)"/></g><g class="l" transform="matrix(1, 0, 0, 1, -13.5, -4)"><rect class="g" width="14" height="14" rx="7" transform="translate(13.5 4)"/></g><g class="k" transform="matrix(1, 0, 0, 1, -13.5, -4)"><rect class="h" width="14" height="14" rx="7" transform="translate(13.5 4)"/></g><path class="i" d="M6.408,0a6.408,6.408,0,0,1,6.408,6.408v.407A6.408,6.408,0,0,1,0,6.815V6.408A6.408,6.408,0,0,1,6.408,0Z" transform="translate(0.712 0.269)"/><circle class="j" cx="5" cy="5" r="5" transform="translate(2 2)"/></g></g></svg>