<svg xmlns="http://www.w3.org/2000/svg" xmlns:xlink="http://www.w3.org/1999/xlink" width="83" height="90.5" viewBox="0 0 83 90.5"><defs><style>.a{fill:url(#a);}.b{fill:url(#m);}.c,.d{fill:none;}.c{stroke:#707070;}.d{stroke:#0a0e10;}.e{filter:url(#k);}.f{filter:url(#h);}.g{filter:url(#e);}.h{filter:url(#b);}</style><linearGradient id="a" x1="0.089" y1="0.96" x2="0.942" y2="0.063" gradientUnits="objectBoundingBox"><stop offset="0" stop-color="#030507"/><stop offset="1" stop-color="#2d343b"/></linearGradient><filter id="b" x="5.5" y="0" width="68" height="68" filterUnits="userSpaceOnUse"><feOffset dx="-2" dy="2" input="SourceAlpha"/><feGaussianBlur stdDeviation="2" result="c"/><feFlood flood-opacity="0.443"/><feComposite operator="in" in2="c"/><feComposite in="SourceGraphic"/></filter><filter id="e" x="12" y="3.5" width="59" height="59" filterUnits="userSpaceOnUse"><feOffset dy="1" input="SourceAlpha"/><feGaussianBlur stdDeviation="0.5" result="f"/><feFlood flood-opacity="0.482"/><feComposite operator="in" in2="f"/><feComposite in="SourceGraphic"/></filter><filter id="h" x="6" y="2.5" width="71" height="71" filterUnits="userSpaceOnUse"><feOffset dy="6" input="SourceAlpha"/><feGaussianBlur stdDeviation="2.5" result="i"/><feFlood flood-opacity="0.482"/><feComposite operator="in" in2="i"/><feComposite in="SourceGraphic"/></filter><filter id="k" x="0" y="4" width="83" height="86.5" filterUnits="userSpaceOnUse"><feOffset dy="17" input="SourceAlpha"/><feGaussianBlur stdDeviation="4.5" result="l"/><feFlood flood-opacity="0.251"/><feComposite operator="in" in2="l"/><feComposite in="SourceGraphic"/></filter><linearGradient id="m" x1="0.117" y1="0.885" x2="0.884" y2="0.125" gradientUnits="objectBoundingBox"><stop offset="0" stop-color="#111619"/><stop offset="1" stop-color="#282e34"/></linearGradient></defs><g transform="translate(13.5 4)"><g transform="translate(-161 -368)"><g class="h" transform="matrix(1, 0, 0, 1, 147.5, 364)"><rect class="a" width="56" height="56" rx="28" transform="translate(13.5 4)"/></g><g class="g" transform="matrix(1, 0, 0, 1, 147.5, 364)"><rect class="a" width="56" height="56" rx="28" transform="translate(13.5 4)"/></g><g class="f" transform="matrix(1, 0, 0, 1, 147.5, 364)"><rect class="a" width="56" height="56" rx="28" transform="translate(13.5 4)"/></g><g class="e" transform="matrix(1, 0, 0, 1, 147.5, 364)"><rect class="a" width="56" height="56" rx="28" transform="translate(13.5 4)"/></g><rect class="b" width="52" height="52" rx="26" transform="translate(163 370)"/></g><g transform="translate(-160.251 -318)"><g transform="translate(178.251 339)"><line class="c" x2="19.498" transform="translate(0)"/><line class="d" x2="19.498" transform="translate(0 1)"/></g><g transform="translate(178.251 346)"><line class="c" x2="19.498" transform="translate(0)"/><line class="d" x2="19.498" transform="translate(0 1)"/></g><g transform="translate(178.251 353)"><line class="c" x2="19.498" transform="translate(0)"/><line class="d" x2="19.498" transform="translate(0 1)"/></g></g></g></svg>