<svg xmlns="http://www.w3.org/2000/svg" xmlns:xlink="http://www.w3.org/1999/xlink" width="26.749" height="23.209" viewBox="0 0 26.749 23.209"><defs><style>.a{fill:url(#a);}</style><linearGradient id="a" x1="0.5" x2="0.5" y2="1" gradientUnits="objectBoundingBox"><stop offset="0" stop-color="#ee6946"/><stop offset="1" stop-color="#ed7d40"/></linearGradient></defs><g transform="translate(51.464 -214.862)"><path class="a" d="M-37.682,215.01a1.7,1.7,0,0,0-1.825.286l-7.193,6.442h-3.067a1.7,1.7,0,0,0-1.7,1.7v6.06a1.7,1.7,0,0,0,1.7,1.7H-46.7l7.192,6.441a1.7,1.7,0,0,0,1.134.435,1.689,1.689,0,0,0,.691-.148,1.7,1.7,0,0,0,1.006-1.551V216.56A1.7,1.7,0,0,0-37.682,215.01Zm-1.265,20.079-6.4-5.73a1.692,1.692,0,0,0-1.134-.435h-2.712V224.01h2.712a1.7,1.7,0,0,0,1.133-.433l6.4-5.732Z"/><path class="a" d="M-21.821,228.152l2.518-2.518a1.112,1.112,0,0,0,.328-.791,1.111,1.111,0,0,0-.328-.79,1.121,1.121,0,0,0-1.58,0l-2.518,2.518-2.518-2.518a1.121,1.121,0,0,0-1.58,0,1.119,1.119,0,0,0,0,1.58l2.518,2.518-2.518,2.518a1.119,1.119,0,0,0,0,1.58h0a1.117,1.117,0,0,0,.79.326,1.115,1.115,0,0,0,.79-.327l2.518-2.518,2.518,2.518a1.117,1.117,0,0,0,.79.326,1.115,1.115,0,0,0,.79-.326,1.111,1.111,0,0,0,.328-.79,1.111,1.111,0,0,0-.328-.79Z" transform="translate(-5.74 -2.152)"/></g></svg>