<svg xmlns="http://www.w3.org/2000/svg" width="27.496" height="19.24" viewBox="0 0 27.496 19.24">
  <g id="Grupo_256" data-name="Grupo 256" transform="translate(831.232 -18.954)">
    <path id="Caminho_139" data-name="Caminho 139" d="M-817.441,38.191c-2.775-.007-5.55-.039-8.319-.234a18.15,18.15,0,0,1-2.255-.272,3.553,3.553,0,0,1-2.789-3.047,40.62,40.62,0,0,1-.376-8.2,25.025,25.025,0,0,1,.44-4.214,3.543,3.543,0,0,1,3.111-2.835,77.194,77.194,0,0,1,8.51-.424c2.968-.05,5.935.021,8.9.169a22.268,22.268,0,0,1,2.937.29,3.5,3.5,0,0,1,3.13,3.2,36.763,36.763,0,0,1,.407,6.837,28.956,28.956,0,0,1-.478,5.4,3.454,3.454,0,0,1-3.145,2.9,77.66,77.66,0,0,1-8.612.424C-816.467,38.2-816.954,38.191-817.441,38.191ZM-820.2,24.479v8.2l7.12-4.094Z" transform="translate(0 0)" fill="#fe0000"/>
    <path id="Caminho_140" data-name="Caminho 140" d="M-669.253,100.043l7.12,4.109-7.12,4.094Z" transform="translate(-150.943 -75.564)" fill="#fefdfd"/>
  </g>
</svg>
