<svg xmlns="http://www.w3.org/2000/svg" width="43.281" height="8.838" viewBox="0 0 43.281 8.838">
  <g id="Grupo_258" data-name="Grupo 258" transform="translate(1350.193 -185.486)">
    <path id="Caminho_141" data-name="Caminho 141" d="M-1344.935,219.828q0,.892,0,1.785a2.33,2.33,0,0,1-1.593,2.34,3.72,3.72,0,0,1-3.234-.322c-.388-.226-.427-.4-.225-.75.263-.448.408-.5.835-.284a2.67,2.67,0,0,0,1.811.291,1.145,1.145,0,0,0,.99-1.159c0-.075.04-.172-.037-.221-.1-.065-.158.044-.226.093a2.336,2.336,0,0,1-3.214-.592,2.682,2.682,0,0,1,.071-2.821,2.26,2.26,0,0,1,2.419-.892,1.819,1.819,0,0,1,.846.411c.129.11.22.143.294-.076.093-.278.465-.381.91-.293.3.058.36.256.355.527C-1344.942,218.519-1344.935,219.173-1344.935,219.828Zm-2.652,1.014a1.135,1.135,0,0,0,1.238-1.207,1.147,1.147,0,0,0-1.248-1.2,1.109,1.109,0,0,0-1.145,1.2A1.083,1.083,0,0,0-1347.586,220.841Z" transform="translate(0 -29.859)" fill="#fef5f5"/>
    <path id="Caminho_142" data-name="Caminho 142" d="M-1118.447,188.884q0-1.428,0-2.856c0-.387.13-.526.509-.538,1.04-.034.952.093.944.894,0,.4,0,.793,0,1.19,0,.106-.05.246.048.308.114.073.19-.068.275-.124a2.25,2.25,0,0,1,2.905.32,2.816,2.816,0,0,1-.427,3.965,2.394,2.394,0,0,1-2.607-.1c-.18-.137-.314-.232-.381.091a.3.3,0,0,1-.239.2,1.65,1.65,0,0,1-.737.014c-.253-.051-.293-.26-.292-.485,0-.486,0-.972,0-1.458S-1118.447,189.36-1118.447,188.884Zm3.832,1.054a1.194,1.194,0,0,0-.622-1.25,1.351,1.351,0,0,0-1.557.4,1.587,1.587,0,0,0,.154,1.775,1.274,1.274,0,0,0,1.392.219A1.063,1.063,0,0,0-1114.615,189.938Z" transform="translate(-217.926)" fill="#fef5f5"/>
    <path id="Caminho_143" data-name="Caminho 143" d="M-923.733,220.623q0-1.427,0-2.854c0-.381.112-.494.5-.5a2.482,2.482,0,0,1,.444.021.356.356,0,0,1,.335.292c.047.314.173.226.343.088a2.175,2.175,0,0,1,1.784-.466,2.191,2.191,0,0,1,1.865,2.09,2.732,2.732,0,0,1-.494,2.057,2.325,2.325,0,0,1-3.059.455c-.068-.047-.128-.157-.226-.1s-.041.163-.042.247c0,.535,0,1.07,0,1.606,0,.318-.125.455-.443.47-1.138.052-1-.054-1-.909Q-923.732,221.871-923.733,220.623Zm1.446-.9c0,.023,0,.1.01.181a1.054,1.054,0,0,0,.757.994,1.217,1.217,0,0,0,1.341-.286,1.623,1.623,0,0,0-.047-1.9,1.288,1.288,0,0,0-1.382-.219A1.174,1.174,0,0,0-922.287,219.721Z" transform="translate(-401.024 -29.794)" fill="#fef5f5"/>
    <path id="Caminho_144" data-name="Caminho 144" d="M-711.818,218.736c.662,0,.666,0,.922.611.305.731.6,1.466.906,2.2.036.087.035.229.147.235s.112-.142.141-.226c.277-.784.547-1.57.821-2.356.127-.365.247-.453.632-.461.169,0,.338-.006.506,0,.422.015.54.185.38.57-.487,1.171-.98,2.338-1.472,3.507a10.97,10.97,0,0,1-.873,1.852,1.733,1.733,0,0,1-2.578.5.393.393,0,0,1-.133-.6c.245-.4.425-.508.718-.388a.775.775,0,0,0,1.136-.683.574.574,0,0,0-.091-.308q-.885-1.882-1.766-3.766c-.248-.532-.152-.68.425-.682Z" transform="translate(-599.618 -31.265)" fill="#fef5f5"/>
    <path id="Caminho_145" data-name="Caminho 145" d="M-1021.847,219.785a2.518,2.518,0,0,1,2.692-2.515,2.48,2.48,0,0,1,2.6,2.5,2.534,2.534,0,0,1-2.627,2.508A2.453,2.453,0,0,1-1021.847,219.785Zm3.824-.02a1.15,1.15,0,0,0-1.171-1.284,1.2,1.2,0,0,0-1.2,1.3,1.164,1.164,0,0,0,1.186,1.275A1.144,1.144,0,0,0-1018.023,219.765Z" transform="translate(-308.766 -29.889)" fill="#fef5f5"/>
    <path id="Caminho_146" data-name="Caminho 146" d="M-788.176,220.315c0,.416-.007.833,0,1.249.006.28-.139.4-.395.412-.119.007-.238,0-.357,0a.378.378,0,0,1-.419-.337c-.033-.226-.122-.2-.266-.076a2.238,2.238,0,0,1-2.151.43,1.326,1.326,0,0,1-1.068-1.329,1.4,1.4,0,0,1,.992-1.4,3.727,3.727,0,0,1,1.938-.061c.111.022.248.116.332,0s.015-.244-.029-.368a.848.848,0,0,0-.775-.6,2.371,2.371,0,0,0-1.3.209.642.642,0,0,1-.878-.561.366.366,0,0,1,.205-.307,2.625,2.625,0,0,1,1.093-.441,3.714,3.714,0,0,1,1.623.038,1.951,1.951,0,0,1,1.453,1.978C-788.17,219.541-788.176,219.928-788.176,220.315Zm-2.358-.33a1.992,1.992,0,0,0-.616.1.471.471,0,0,0-.332.416.453.453,0,0,0,.215.458,1.233,1.233,0,0,0,1.62-.595c.054-.176,0-.267-.181-.29C-790.064,220.04-790.3,220.013-790.535,219.985Z" transform="translate(-524.127 -29.699)" fill="#fef5f5"/>
    <path id="Caminho_147" data-name="Caminho 147" d="M-1211.109,219.679a2.537,2.537,0,0,1-2.656,2.51,2.49,2.49,0,0,1-2.632-2.52,2.563,2.563,0,0,1,2.753-2.5A2.468,2.468,0,0,1-1211.109,219.679Zm-3.816.01a1.14,1.14,0,0,0,1.085,1.272,1.175,1.175,0,0,0,1.271-1.385,1.16,1.16,0,0,0-.791-1.139A1.178,1.178,0,0,0-1214.925,219.689Z" transform="translate(-125.817 -29.791)" fill="#fef5f5"/>
    <path id="Caminho_148" data-name="Caminho 148" d="M-1250.468,188.9q0-1.4,0-2.793c0-.457.129-.585.58-.591.865-.012.9.023.9.895q0,2.63,0,5.26c0,.549-.088.635-.639.636-.823,0-.841-.017-.841-.85Q-1250.467,190.175-1250.468,188.9Z" transform="translate(-93.778 -0.024)" fill="#fef5f5"/>
    <path id="Caminho_149" data-name="Caminho 149" d="M-825.781,189.335q0-1.5,0-3.006c0-.381.147-.494.5-.367.947.341.965.2.957,1.292-.011,1.537,0,3.075,0,4.612,0,.427-.092.552-.5.7-.159.057-.316.119-.476.172-.323.106-.476,0-.478-.338-.005-.784,0-1.567,0-2.351Q-825.781,189.692-825.781,189.335Z" transform="translate(-493.139 -0.402)" fill="#fef5f5"/>
  </g>
</svg>
