<svg xmlns="http://www.w3.org/2000/svg" width="20.949" height="38.132" viewBox="0 0 20.949 38.132">
  <g id="Grupo_255" data-name="Grupo 255" transform="translate(2 -511)">
    <g id="Grupo_254" data-name="Grupo 254" transform="translate(-2 511)">
      <path id="Caminho_136" data-name="Caminho 136" d="M146.575,144.861c2.412,0,4.824,0,7.235-.016.249,0,.273.156.329.313q1.494,4.213,2.986,8.427,1.376,3.887,2.751,7.775a.773.773,0,0,0,.152.338.84.84,0,0,0,.088.4q.659,1.869,1.319,3.738,2.88,8.177,5.762,16.353c.059.169.082.363.25.478.078.269-.015.335-.29.3q-3.539-.434-7.1-.592c-.191-.008-.309-.047-.381-.254q-2.782-7.892-5.577-15.779a.142.142,0,0,1,0-.034.382.382,0,0,0-.011-.068q-3.49-9.886-6.985-19.77a6.441,6.441,0,0,0-.519-1.345l-.038-.172Z" transform="translate(-146.538 -144.845)" fill="#e40914"/>
      <path id="Caminho_137" data-name="Caminho 137" d="M349.39,183.439c-.168-.115-.19-.31-.25-.478q-2.884-8.175-5.762-16.353-.658-1.87-1.319-3.738a.84.84,0,0,1-.088-.4q0-8.224,0-16.447c0-.276.09-.35.355-.349,2.218.009,4.437,0,6.655,0,.44,0,.441,0,.441.455q0,15.241,0,30.481,0,3.172-.011,6.344C349.42,183.119,349.4,183.279,349.39,183.439Z" transform="translate(-328.482 -145.617)" fill="#b0060f"/>
      <path id="Caminho_138" data-name="Caminho 138" d="M146.633,148.943a6.441,6.441,0,0,1,.519,1.345q3.5,9.882,6.985,19.77a.383.383,0,0,1,.011.068c-.132.136-.067.306-.067.458q-.012,6.985-.017,13.97c0,.425-.041.851-.031,1.275.006.258-.1.338-.337.351-.849.047-1.7.115-2.546.164-1.354.078-2.7.246-4.046.39-.5.053-.5.063-.5-.437q0-18.4,0-36.805C146.6,149.308,146.621,149.126,146.633,148.943Z" transform="translate(-146.595 -148.66)" fill="#b0060f"/>
    </g>
  </g>
</svg>
