<svg xmlns="http://www.w3.org/2000/svg" width="30.317" height="30.48" viewBox="0 0 30.317 30.48">
  <g id="Grupo_263" data-name="Grupo 263" transform="translate(-286.822 -290.681)">
    <path id="Caminho_150" data-name="Caminho 150" d="M-4320.1,796.547c-.01-.038-.043-.027-.068-.029-.476-.033-.95-.074-1.424-.134a20.612,20.612,0,0,1-2.123-.381,21.328,21.328,0,0,1-8.77-4.372c-.459-.378-.9-.776-1.328-1.188a.553.553,0,0,1-.162-.225.277.277,0,0,1,.054-.288.257.257,0,0,1,.271-.068.748.748,0,0,1,.212.106,27.216,27.216,0,0,0,3.242,1.724,28.55,28.55,0,0,0,6.045,1.942c.825.167,1.656.3,2.491.392a27.556,27.556,0,0,0,4.132.156c.654-.023,1.306-.08,1.957-.154a28.11,28.11,0,0,0,4.84-.993,27.222,27.222,0,0,0,3.5-1.307.822.822,0,0,1,.389-.1.452.452,0,0,1,.386.669.767.767,0,0,1-.222.25,16.252,16.252,0,0,1-2.62,1.675,20.97,20.97,0,0,1-4.984,1.8q-1.074.245-2.166.382c-.417.053-.836.089-1.256.118-.034,0-.076-.017-.1.029Z" transform="translate(4620.926 -475.386)" fill="#01ace7"/>
    <path id="Caminho_151" data-name="Caminho 151" d="M-2557.91-716.412a.08.08,0,0,0-.024.063,1.381,1.381,0,0,1-.642,1.066,2.294,2.294,0,0,1-.907.355,5.383,5.383,0,0,1-2.117-.018.444.444,0,0,0-.053-.005.088.088,0,0,0-.015.082,2.773,2.773,0,0,0,.092.439,1.216,1.216,0,0,0,.98.878,3.465,3.465,0,0,0,.991.046,6.316,6.316,0,0,0,1.1-.2l.082-.019c.157-.033.249.024.263.183a4.278,4.278,0,0,1,0,.771.245.245,0,0,1-.126.191,1.216,1.216,0,0,1-.231.1,5.073,5.073,0,0,1-2.056.276,3.2,3.2,0,0,1-1.1-.255,2.461,2.461,0,0,1-1.422-1.7,4.449,4.449,0,0,1-.127-1.446,3.774,3.774,0,0,1,.294-1.32,2.6,2.6,0,0,1,2.06-1.588,3.578,3.578,0,0,1,1.543.059,1.881,1.881,0,0,1,1.188.875,1.407,1.407,0,0,1,.206.649c0,.027,0,.057.025.076Zm-2.8.505c.121,0,.243.006.364,0a1.373,1.373,0,0,0,.49-.11.6.6,0,0,0,.376-.56,1.343,1.343,0,0,0,0-.14.626.626,0,0,0-.5-.618,1.568,1.568,0,0,0-.515-.036,1.091,1.091,0,0,0-.948.622,2.17,2.17,0,0,0-.2.639c-.02.114-.011.126.106.144A4.273,4.273,0,0,0-2560.708-715.907Z" transform="translate(2875.049 1011.85)" fill="#01ace7"/>
    <path id="Caminho_152" data-name="Caminho 152" d="M-3281.6-717.779a.3.3,0,0,0,.148-.072,4.12,4.12,0,0,1,1.34-.59,2.769,2.769,0,0,1,1.169-.018,1.44,1.44,0,0,1,.924.611c.059.088.063.088.15.031a4.294,4.294,0,0,1,1.2-.567,2.974,2.974,0,0,1,1.415-.077,1.475,1.475,0,0,1,1.2,1.284,2.782,2.782,0,0,1,.03.405q0,2.064,0,4.128c0,.267-.067.335-.329.335h-1.039c-.023,0-.047,0-.07,0a.251.251,0,0,1-.273-.272c0-.042,0-.084,0-.126q0-1.8,0-3.594a1.614,1.614,0,0,0-.023-.349.61.61,0,0,0-.636-.537,2.863,2.863,0,0,0-1.263.273.1.1,0,0,0-.071.105c0,.032,0,.065,0,.1v4c0,.047,0,.094,0,.14-.008.174-.078.256-.248.258q-.6.009-1.207,0c-.159,0-.235-.085-.252-.246a1.276,1.276,0,0,1,0-.14q0-1.811,0-3.622a1.53,1.53,0,0,0-.023-.335.6.6,0,0,0-.612-.531,2.731,2.731,0,0,0-1.3.283.09.09,0,0,0-.064.1c0,.037,0,.075,0,.112v3.987c0,.052,0,.1,0,.154a.235.235,0,0,1-.252.244h-1.151a.578.578,0,0,1-.111-.01.223.223,0,0,1-.188-.2.863.863,0,0,1-.006-.14q0-2.661,0-5.321c0-.291.064-.355.353-.356.243,0,.486,0,.73,0s.32.061.391.3Z" transform="translate(3584.85 1011.79)" fill="#01ace7"/>
    <path id="Caminho_154" data-name="Caminho 154" d="M-4340.655-717.477a.128.128,0,0,0,.084-.046,2.7,2.7,0,0,1,1.913-.667,2.144,2.144,0,0,1,1.765.962,2.988,2.988,0,0,1,.487,1.214,4.894,4.894,0,0,1-.073,2.142,2.973,2.973,0,0,1-.758,1.356,2.193,2.193,0,0,1-1.73.649,2.574,2.574,0,0,1-1.284-.4c-.074-.047-.143-.1-.237-.165v2.516c0,.292-.052.344-.341.345-.346,0-.692,0-1.038,0-.261,0-.333-.074-.339-.333,0-.028,0-.056,0-.084v-7.608a.983.983,0,0,1,.023-.25.2.2,0,0,1,.173-.161,1,1,0,0,1,.153-.014q.371,0,.744,0c.248,0,.329.066.4.309C-4340.7-717.634-4340.677-717.557-4340.655-717.477Zm.167,2.439c0,.477,0,.955,0,1.432a.188.188,0,0,0,.118.194,2.121,2.121,0,0,0,1.249.238,1.009,1.009,0,0,0,.856-.617,1.757,1.757,0,0,0,.131-.4,4.442,4.442,0,0,0,.049-1.383,2.145,2.145,0,0,0-.193-.729.97.97,0,0,0-.685-.551,2.09,2.09,0,0,0-1.412.213.173.173,0,0,0-.113.184C-4340.485-715.984-4340.489-715.511-4340.489-715.039Z" transform="translate(4629.029 1011.472)" fill="#01ace7"/>
    <path id="Caminho_158" data-name="Caminho 158" d="M-3840.389-709.3a5.569,5.569,0,0,1,.408-.394,2.093,2.093,0,0,1,.988-.5,2.228,2.228,0,0,1,.559-.033c.19.013.263.086.266.274.005.341.006.683,0,1.025,0,.213-.1.294-.331.28-.158-.009-.317-.02-.476-.02a3.736,3.736,0,0,0-1.208.217c-.133.045-.133.049-.133.188v3.721c0,.061,0,.122,0,.182a.208.208,0,0,1-.19.209.577.577,0,0,1-.112.008h-1.081a.7.7,0,0,1-.084,0,.232.232,0,0,1-.231-.221.834.834,0,0,1-.009-.14q0-2.654,0-5.307c0-.287.07-.357.356-.358q.365,0,.729,0c.249,0,.337.072.394.309.039.159.076.318.114.477A.139.139,0,0,0-3840.389-709.3Z" transform="translate(4135.877 1003.623)" fill="#01ace7"/>
    <path id="Caminho_160" data-name="Caminho 160" d="M-2592.361,766.08a14.715,14.715,0,0,0-1.524.1c-.251.029-.5.061-.751.089a1.021,1.021,0,0,1-.168.008.179.179,0,0,1-.171-.271.535.535,0,0,1,.189-.221,4.44,4.44,0,0,1,1.214-.632,6.32,6.32,0,0,1,1.618-.321,6.2,6.2,0,0,1,1.853.124,2.237,2.237,0,0,1,.476.165.454.454,0,0,1,.265.354,2.994,2.994,0,0,1,.016.812,8.075,8.075,0,0,1-.841,2.877,5.172,5.172,0,0,1-1.1,1.5.545.545,0,0,1-.236.145.171.171,0,0,1-.232-.18.554.554,0,0,1,.049-.2c.218-.587.432-1.176.613-1.776a9.057,9.057,0,0,0,.31-1.294,2.147,2.147,0,0,0,.017-.7.5.5,0,0,0-.287-.389,1.879,1.879,0,0,0-.622-.158A4.932,4.932,0,0,0-2592.361,766.08Z" transform="translate(2906.364 -450.704)" fill="#01ace7"/>
    <path id="Caminho_161" data-name="Caminho 161" d="M-3506.812-702.951q0,1.319,0,2.638c0,.31-.057.367-.368.367h-.982a1.013,1.013,0,0,1-.126,0,.233.233,0,0,1-.23-.223.773.773,0,0,1-.006-.126q0-2.666,0-5.331c0-.014,0-.028,0-.042.006-.217.08-.3.3-.3.374,0,.748,0,1.122,0a.539.539,0,0,1,.111.015.192.192,0,0,1,.175.188,1.376,1.376,0,0,1,.006.168Q-3506.812-704.277-3506.812-702.951Z" transform="translate(3807.058 999.427)" fill="#01ace7"/>
    <g id="Grupo_262" data-name="Grupo 262">
      <path id="Caminho_153" data-name="Caminho 153" d="M-3611.125-64.73v-.129q0-1.341,0-2.681c0-.3.063-.364.361-.365q.54,0,1.08,0c.287,0,.353.068.353.36q0,4.232,0,8.465c0,.019,0,.037,0,.056-.011.218-.085.295-.3.3q-.5,0-1,0c-.2,0-.273-.064-.333-.255a1.776,1.776,0,0,0-.085-.286c-.053.042-.1.081-.146.117a2.6,2.6,0,0,1-2.518.416,2.3,2.3,0,0,1-1.312-1.181,3.6,3.6,0,0,1-.385-1.267,5.424,5.424,0,0,1,.052-1.7,3.2,3.2,0,0,1,.836-1.668,2.27,2.27,0,0,1,1.593-.69,2.68,2.68,0,0,1,1.73.5.294.294,0,0,0,.048.026S-3611.143-64.724-3611.125-64.73Zm0,2.793c0-.51,0-1.02,0-1.53a.156.156,0,0,0-.1-.161,2.373,2.373,0,0,0-1.264-.247,1.028,1.028,0,0,0-.843.505,1.622,1.622,0,0,0-.2.491,4.435,4.435,0,0,0-.048,1.687,1.87,1.87,0,0,0,.215.649,1.073,1.073,0,0,0,.727.548,1.952,1.952,0,0,0,1.4-.239.182.182,0,0,0,.109-.187C-3611.128-60.927-3611.125-61.432-3611.125-61.938Z" transform="translate(3912.485 370.321)" fill="#fef5f5"/>
      <path id="Caminho_155" data-name="Caminho 155" d="M-2628.094,124.187a3.934,3.934,0,0,1,.288-1.586,2.677,2.677,0,0,1,2.158-1.671,3.862,3.862,0,0,1,1.655.07,2.675,2.675,0,0,1,1.913,1.843,3.986,3.986,0,0,1,.194,1.186,4.914,4.914,0,0,1-.139,1.4,2.853,2.853,0,0,1-.96,1.529,2.724,2.724,0,0,1-1.227.552,3.908,3.908,0,0,1-1.792-.057,2.665,2.665,0,0,1-1.89-1.831A4.321,4.321,0,0,1-2628.094,124.187Zm1.814.078c.005.114.007.269.021.423a2.641,2.641,0,0,0,.182.789,1.1,1.1,0,0,0,1.053.723,1.1,1.1,0,0,0,1.1-.671,1.8,1.8,0,0,0,.128-.37,4.51,4.51,0,0,0,.046-1.632,1.961,1.961,0,0,0-.216-.678,1.041,1.041,0,0,0-.75-.557,1.438,1.438,0,0,0-.613.015,1.009,1.009,0,0,0-.575.376,1.573,1.573,0,0,0-.25.514A3.9,3.9,0,0,0-2626.28,124.265Z" transform="translate(2938.996 184.193)" fill="#fef5f5"/>
      <path id="Caminho_156" data-name="Caminho 156" d="M-3087.285,128.769a.4.4,0,0,0,0,.183c.014.083.03.166.05.247a1.278,1.278,0,0,0,1.1,1.031,4.079,4.079,0,0,0,1.519-.045c.2-.04.4-.093.6-.138a.579.579,0,0,1,.124-.018.16.16,0,0,1,.182.14,3.41,3.41,0,0,1,0,.895c-.014.108-.109.159-.2.2a4.361,4.361,0,0,1-.68.216,4.949,4.949,0,0,1-1.99.076,2.548,2.548,0,0,1-2.208-2.079,4.46,4.46,0,0,1,.119-2.544,2.663,2.663,0,0,1,2.233-1.845,3.443,3.443,0,0,1,1.7.119,1.815,1.815,0,0,1,1.21,1.212,2.068,2.068,0,0,1,.02,1.163,1.482,1.482,0,0,1-.692.9,2.643,2.643,0,0,1-.987.343,5.824,5.824,0,0,1-1.815,0C-3087.09,128.81-3087.185,128.788-3087.285,128.769Zm.972-.985c.135,0,.271.006.407,0a1.345,1.345,0,0,0,.475-.111.619.619,0,0,0,.378-.488.992.992,0,0,0,0-.335.632.632,0,0,0-.479-.529,1.5,1.5,0,0,0-.584-.044,1.123,1.123,0,0,0-.925.62,2.181,2.181,0,0,0-.215.678c-.021.128-.017.131.11.152A4.239,4.239,0,0,0-3086.313,127.784Z" transform="translate(3393.343 180.093)" fill="#fef5f5"/>
      <path id="Caminho_157" data-name="Caminho 157" d="M-4336.191,139.244q.187-.633.372-1.263l.9-3.052c.012-.04.023-.081.039-.12a.332.332,0,0,1,.322-.228c.177,0,.355,0,.533,0h.673a1.065,1.065,0,0,1,.14.006.173.173,0,0,1,.165.226,1.729,1.729,0,0,1-.083.267q-1.044,2.744-2.089,5.487c-.011.031-.024.061-.037.091a.389.389,0,0,1-.393.258c-.365,0-.729,0-1.095,0a.41.41,0,0,1-.427-.294c-.126-.332-.255-.663-.381-.995q-.85-2.233-1.7-4.466a2.046,2.046,0,0,1-.111-.332c-.031-.151.031-.236.186-.245.13-.008.261,0,.392,0h.842c.317,0,.4.064.49.366q.412,1.427.822,2.855l.389,1.346C-4336.234,139.179-4336.235,139.22-4336.191,139.244Z" transform="translate(4626.236 170.682)" fill="#fef5f5"/>
      <path id="Caminho_159" data-name="Caminho 159" d="M-3826.9,137.686v-2.708c0-.047,0-.094,0-.14,0-.222.076-.3.293-.3q.6-.005,1.207,0c.214,0,.281.071.293.287,0,.037,0,.075,0,.112q0,2.764,0,5.529a.978.978,0,0,1-.017.223.21.21,0,0,1-.194.175,1.3,1.3,0,0,1-.153.007h-1.066c-.037,0-.075,0-.112,0a.238.238,0,0,1-.25-.247c0-.051,0-.1,0-.154Q-3826.9,139.075-3826.9,137.686Z" transform="translate(4120.966 170.724)" fill="#fef5f5"/>
      <path id="Caminho_162" data-name="Caminho 162" d="M-3835.609-72.754a1.049,1.049,0,0,1,.516.106.854.854,0,0,1,.494.716,1.166,1.166,0,0,1-.017.391.874.874,0,0,1-.7.684,1.3,1.3,0,0,1-.679-.017.888.888,0,0,1-.657-.833,1.2,1.2,0,0,1,.04-.4.925.925,0,0,1,.85-.643C-3835.712-72.757-3835.66-72.754-3835.609-72.754Z" transform="translate(4130.578 375.101)" fill="#fef5f5"/>
    </g>
    <path id="Caminho_163" data-name="Caminho 163" d="M-3517.208-901.3a1.026,1.026,0,0,1-.541-.119.858.858,0,0,1-.192-.141.93.93,0,0,1,.352-1.515,1.229,1.229,0,0,1,.745-.007.865.865,0,0,1,.616.99.864.864,0,0,1-.855.792C-3517.124-901.3-3517.167-901.3-3517.208-901.3Z" transform="translate(3816.597 1193.818)" fill="#01ace7"/>
  </g>
</svg>
