<svg xmlns="http://www.w3.org/2000/svg" width="17.117" height="17.928" viewBox="0 0 17.117 17.928"><defs><style>.a{opacity:0.39;}.b{fill:#88cdff;fill-rule:evenodd;}.b,.c{stroke:#707070;stroke-miterlimit:10;}.c{fill:none;}</style></defs><g class="a" transform="translate(16.879 17.928) rotate(180)"><g transform="translate(0 0)"><path class="b" d="M3365.425,2403.046v17.928" transform="translate(-3357.055 -2403.046)"/><path class="b" d="M3371.81,2408.194l-16.511,8.964" transform="translate(-3355.299 -2403.938)"/><path class="b" d="M3355.3,2408.1l16.511,8.964" transform="translate(-3355.301 -2403.921)"/><path class="c" d="M3362.145,2404.957l2.681,3.077,2.682-3.031" transform="translate(-3356.485 -2403.377)"/><path class="c" d="M3362.152,2422.611l2.681-3.077,2.682,3.03" transform="translate(-3356.488 -2405.906)"/><path class="c" d="M3372.126,2405.951l-1.324,3.861,3.965.807" transform="translate(-3357.988 -2403.549)"/><path class="c" d="M3374.623,2415.345l-4.006.784,1.283,3.837" transform="translate(-3357.956 -2405.179)"/><path class="c" d="M3358.57,2419.677l1.324-3.86-3.965-.807" transform="translate(-3355.408 -2405.12)"/><path class="c" d="M3355.537,2410.919l4.006-.785-1.284-3.836" transform="translate(-3355.34 -2403.609)"/></g></g></svg>