<svg xmlns="http://www.w3.org/2000/svg" width="21.052" height="31.166" viewBox="0 0 21.052 31.166"><defs><style>.a{opacity:0.608;}.b,.c,.f{fill:none;}.c{stroke:#ed7442;stroke-width:3px;}.d,.e{stroke:none;}.e{fill:#ed7442;}</style></defs><g transform="translate(0 0)"><g class="a" transform="translate(0 0)"><g transform="translate(0 0)"><g class="b" transform="translate(-2839.517 -2607.628)"><path class="d" d="M2852.4,2633.149h-4.718a3.88,3.88,0,0,1-3.9-3.852v-2.027a2.007,2.007,0,0,0-.742-1.494,10.247,10.247,0,0,1-3.475-8.77,10.471,10.471,0,0,1,9.284-9.317,10.682,10.682,0,0,1,8.213,2.587,10.3,10.3,0,0,1,.01,15.474,2.125,2.125,0,0,0-.773,1.582v1.965A3.881,3.881,0,0,1,2852.4,2633.149Z"/><path class="e" d="M 2852.4013671875 2630.1494140625 C 2852.8974609375 2630.1494140625 2853.30126953125 2629.767333984375 2853.30126953125 2629.2978515625 L 2853.30126953125 2627.3330078125 C 2853.30126953125 2625.882080078125 2853.935302734375 2624.522216796875 2855.083984375 2623.505859375 C 2856.66357421875 2622.10546875 2857.569580078125 2620.106201171875 2857.569580078125 2618.02099609375 C 2857.569580078125 2615.92919921875 2856.660888671875 2613.925537109375 2855.075439453125 2612.52294921875 C 2853.695068359375 2611.30078125 2851.89599609375 2610.627685546875 2850.009521484375 2610.627685546875 C 2849.731201171875 2610.627685546875 2849.44970703125 2610.642822265625 2849.177734375 2610.672119140625 C 2845.67333984375 2611.05615234375 2842.88720703125 2613.842041015625 2842.552978515625 2617.2958984375 C 2842.323486328125 2619.671630859375 2843.223876953125 2621.94189453125 2845.022705078125 2623.524169921875 C 2846.15869140625 2624.522705078125 2846.784423828125 2625.853515625 2846.784423828125 2627.27099609375 L 2846.784423828125 2629.2978515625 C 2846.784423828125 2629.767333984375 2847.18798828125 2630.1494140625 2847.683837890625 2630.1494140625 L 2852.4013671875 2630.1494140625 M 2852.4013671875 2633.1494140625 L 2847.683837890625 2633.1494140625 C 2845.53369140625 2633.1494140625 2843.784423828125 2631.421630859375 2843.784423828125 2629.2978515625 L 2843.784423828125 2627.27099609375 C 2843.784423828125 2626.730224609375 2843.522216796875 2626.199462890625 2843.0419921875 2625.77734375 C 2840.510498046875 2623.55078125 2839.243408203125 2620.3544921875 2839.56689453125 2617.00732421875 C 2840.037353515625 2612.146728515625 2843.9423828125 2608.22802734375 2848.850830078125 2607.68994140625 C 2849.2373046875 2607.648193359375 2849.624267578125 2607.627685546875 2850.009521484375 2607.627685546875 C 2852.601318359375 2607.627685546875 2855.125732421875 2608.560546875 2857.064208984375 2610.277099609375 C 2859.291748046875 2612.24755859375 2860.569580078125 2615.06982421875 2860.569580078125 2618.02099609375 C 2860.569580078125 2620.9638671875 2859.295654296875 2623.78125 2857.07421875 2625.750732421875 C 2856.574462890625 2626.19287109375 2856.30126953125 2626.75537109375 2856.30126953125 2627.3330078125 L 2856.30126953125 2629.2978515625 C 2856.30126953125 2631.421630859375 2854.55126953125 2633.1494140625 2852.4013671875 2633.1494140625 Z"/></g></g><g transform="translate(7.11 28.067)"><g class="c" transform="translate(0 0)"><path class="d" d="M0,0H6.833a0,0,0,0,1,0,0V1.1a2,2,0,0,1-2,2H2a2,2,0,0,1-2-2V0A0,0,0,0,1,0,0Z"/><path class="f" d="M1.574,1.5H5.259a.074.074,0,0,1,.074.074v0a.025.025,0,0,1-.025.025H1.525A.025.025,0,0,1,1.5,1.574v0A.074.074,0,0,1,1.574,1.5Z"/></g></g></g></g></svg>