<svg xmlns="http://www.w3.org/2000/svg" xmlns:xlink="http://www.w3.org/1999/xlink" width="30.556" height="30.556" viewBox="0 0 30.556 30.556"><defs><style>.a{fill:inherit;}</style><linearGradient id="a" x1="0.5" x2="0.5" y2="1" gradientUnits="objectBoundingBox"><stop offset="0" stop-color="#ee6946"/><stop offset="1" stop-color="#ed7d40"/></linearGradient></defs><path class="a" d="M38.009,48.658v-.235a5.093,5.093,0,0,0-5.092-5.092H17.639a5.093,5.093,0,0,0-5.092,5.093v.233A3.81,3.81,0,0,0,10,52.244v8.912H40.556V52.244A3.812,3.812,0,0,0,38.009,48.658Zm-20.37-2.78H32.917a2.549,2.549,0,0,1,2.546,2.545v.235a3.81,3.81,0,0,0-2.546,3.586v1.273H17.639V52.244a3.811,3.811,0,0,0-2.546-3.586v-.233A2.548,2.548,0,0,1,17.639,45.878ZM12.546,58.61V52.244a1.273,1.273,0,1,1,2.546,0v3.819h20.37V52.244a1.273,1.273,0,1,1,2.546,0V58.61Z" transform="translate(-10 -30.6)"/><path class="a" d="M10,10V20.185h7.639V10Zm5.093,7.639H12.546V12.546h2.546Z" transform="translate(-10 -10)"/><path class="a" d="M36.667,10V20.185H46.852V10Zm7.639,7.639H39.213V12.546h5.092v5.092Z" transform="translate(-26.482 -10)"/><path class="a" d="M70,10V20.185h7.639V10Zm5.092,7.639H72.546V12.546h2.546Z" transform="translate(-47.083 -10)"/></svg>