<svg xmlns="http://www.w3.org/2000/svg" xmlns:xlink="http://www.w3.org/1999/xlink" width="33" height="22" viewBox="0 0 33 22"><defs><style>.a{fill: inherit;}</style><linearGradient id="a" x1="0.5" x2="0.5" y2="1" gradientUnits="objectBoundingBox"><stop offset="0" stop-color="#ee6946"/><stop offset="1" stop-color="#ed7d40"/></linearGradient></defs><path class="a" d="M29.249,34.334v-5.5a5.5,5.5,0,0,0-5.5-5.5H15.5a5.5,5.5,0,0,0-5.5,5.5v16.5h2.75v-2.75H26.5v2.75h2.75v-2.75h11v2.75H43v-11Zm-16.5-5.5a2.753,2.753,0,0,1,2.75-2.75H23.75a2.753,2.753,0,0,1,2.75,2.75v5.5H23.75V30.209a1.379,1.379,0,0,0-1.375-1.375h-5.5A1.379,1.379,0,0,0,15.5,30.209v4.125H12.75Zm0,11v-2.75H26.5v2.75Zm27.5,0h-11v-2.75h11Z" transform="translate(-10 -23.334)"/></svg>