<svg id="icon-tab-perfil" xmlns="http://www.w3.org/2000/svg" width="15.399" height="17.017" viewBox="0 0 15.399 17.017">
  <g id="Grupo_137" data-name="Grupo 137" transform="translate(3.047)">
    <path id="Caminho_120" data-name="Caminho 120" d="M-78.478,98.979a4.658,4.658,0,0,1-4.653-4.653,4.658,4.658,0,0,1,4.653-4.652,4.658,4.658,0,0,1,4.653,4.652A4.658,4.658,0,0,1-78.478,98.979Zm0-7.683a3.034,3.034,0,0,0-3.031,3.03,3.034,3.034,0,0,0,3.031,3.031,3.034,3.034,0,0,0,3.031-3.031A3.034,3.034,0,0,0-78.478,91.3Z" transform="translate(83.131 -89.674)" fill="#c5593c"/>
  </g>
  <g id="Grupo_138" data-name="Grupo 138" transform="translate(0 9.738)">
    <path id="Caminho_121" data-name="Caminho 121" d="M-89.022,120.967h-1.622v-2a5.287,5.287,0,0,1,5.281-5.282v1.622a3.664,3.664,0,0,0-3.659,3.66Z" transform="translate(90.644 -113.688)" fill="#c5593c"/>
  </g>
  <g id="Grupo_139" data-name="Grupo 139" transform="translate(10.117 9.738)">
    <path id="Caminho_122" data-name="Caminho 122" d="M-60.413,120.967h-1.622v-2a3.664,3.664,0,0,0-3.659-3.66v-1.622a5.287,5.287,0,0,1,5.281,5.282Z" transform="translate(65.694 -113.688)" fill="#c5593c"/>
  </g>
</svg>
