<svg xmlns="http://www.w3.org/2000/svg" xmlns:xlink="http://www.w3.org/1999/xlink" width="71" height="71" viewBox="0 0 71 71"><defs><style>.a{fill:inherit;}.b{fill:url(#j);}.c{fill:url(#m);}.d{fill:#343b43;opacity:0.576;}.e{filter:url(#k);}.f{filter:url(#h);}.g{filter:url(#e);}.h{filter:url(#b);}</style><linearGradient id="a" x1="0.089" y1="0.96" x2="0.942" y2="0.063" gradientUnits="objectBoundingBox"><stop offset="0" stop-color="#030507"/><stop offset="1" stop-color="#2d343b"/></linearGradient><filter id="b" x="37.5" y="24.5" width="26" height="26" filterUnits="userSpaceOnUse"><feOffset dx="-2" dy="2" input="SourceAlpha"/><feGaussianBlur stdDeviation="2" result="c"/><feFlood flood-opacity="0.443"/><feComposite operator="in" in2="c"/><feComposite in="SourceGraphic"/></filter><filter id="e" x="43" y="27" width="17" height="17" filterUnits="userSpaceOnUse"><feOffset dx="-1" input="SourceAlpha"/><feGaussianBlur stdDeviation="0.5" result="f"/><feFlood flood-opacity="0.482"/><feComposite operator="in" in2="f"/><feComposite in="SourceGraphic"/></filter><filter id="h" x="32" y="21" width="29" height="29" filterUnits="userSpaceOnUse"><feOffset dx="-6" input="SourceAlpha"/><feGaussianBlur stdDeviation="2.5" result="i"/><feFlood flood-opacity="0.482"/><feComposite operator="in" in2="i"/><feComposite in="SourceGraphic"/></filter><linearGradient id="j" x1="0.28" y1="1" x2="0.734" y2="0.07" gradientUnits="objectBoundingBox"><stop offset="0"/><stop offset="1" stop-color="#4b4f53"/></linearGradient><filter id="k" x="0" y="0" width="71" height="71" filterUnits="userSpaceOnUse"><feOffset dx="-17" input="SourceAlpha"/><feGaussianBlur stdDeviation="9.5" result="l"/><feFlood flood-opacity="0.251"/><feComposite operator="in" in2="l"/><feComposite in="SourceGraphic"/></filter><linearGradient id="m" x1="0.117" y1="0.885" x2="0.884" y2="0.125" gradientUnits="objectBoundingBox"><stop offset="0"/><stop offset="1" stop-color="#282e34"/></linearGradient></defs><g transform="translate(209 -253.5)"><g class="h" transform="matrix(1, 0, 0, 1, -209, 253.5)"><rect class="a" width="14" height="14" rx="7" transform="translate(45.5 28.5)"/></g><g class="g" transform="matrix(1, 0, 0, 1, -209, 253.5)"><rect class="a" width="14" height="14" rx="7" transform="translate(45.5 28.5)"/></g><g class="f" transform="matrix(1, 0, 0, 1, -209, 253.5)"><rect class="a" width="14" height="14" rx="7" transform="translate(45.5 28.5)"/></g><g class="e" transform="matrix(1, 0, 0, 1, -209, 253.5)"><rect class="b" width="14" height="14" rx="7" transform="translate(45.5 28.5)"/></g><path class="c" d="M6.408,0a6.408,6.408,0,0,1,6.408,6.408v.407A6.408,6.408,0,0,1,0,6.815V6.408A6.408,6.408,0,0,1,6.408,0Z" transform="translate(-162.788 282.269)"/><circle class="d" cx="5" cy="5" r="5" transform="translate(-161.5 284)"/></g></svg>