<!-- Generator: Adobe Illustrator 24.1.3, SVG Export Plug-In  -->
<svg version="1.1" xmlns="http://www.w3.org/2000/svg" xmlns:xlink="http://www.w3.org/1999/xlink" x="0px" y="0px" width="16.5px"
	 height="16.5px" viewBox="0 0 16.5 16.5" style="overflow:visible;enable-background:new 0 0 16.5 16.5;" xml:space="preserve">
<style type="text/css">
	.st0{fill:#C55A3C;}
</style>
<defs>
</defs>
<g id="icon-tab-comodos_1_" transform="translate(0 0)">
	<path id="Caminho_119_1_" class="st0" d="M14.2,0H2.3C1,0,0,1.1,0,2.3v11.8c0,1.3,1.1,2.3,2.3,2.3h1.3v-1.8H2.3
		c-0.3,0-0.5-0.2-0.5-0.5V9.5h2.6V7.7H1.8V2.3C1.8,2,2,1.8,2.3,1.8h3.8v1.3H8V1.8h6.2c0.3,0,0.5,0.2,0.5,0.5v5.4H8V5.4H6.2v4.1h0.3
		l0,0h2v1.4h1.8V9.5h4.5v4.6c0,0.3-0.2,0.5-0.5,0.5h-4V13H8.4v1.7H6v1.8h8.2c1.3,0,2.3-1.1,2.3-2.3V2.3C16.5,1.1,15.5,0,14.2,0z"/>
</g>
</svg>
