<!-- Generator: Adobe Illustrator 24.1.3, SVG Export Plug-In  -->
<svg version="1.1" xmlns="http://www.w3.org/2000/svg" xmlns:xlink="http://www.w3.org/1999/xlink" x="0px" y="0px" width="15.4px"
	 height="17px" viewBox="0 0 15.4 17" style="overflow:visible;enable-background:new 0 0 15.4 17;" xml:space="preserve">
<style type="text/css">
	.st0{fill:#C55A3C;}
</style>
<defs>
</defs>
<g id="Grupo_137_1_" transform="translate(3.047)">
	<path id="Caminho_120_1_" class="st0" d="M4.7,9.3C2.1,9.3,0,7.2,0,4.7C0,2.1,2.1,0,4.7,0c2.6,0,4.6,2.1,4.7,4.7
		C9.3,7.2,7.2,9.3,4.7,9.3z M4.7,1.6c-1.7,0-3,1.4-3,3c0,1.7,1.4,3,3,3c1.7,0,3-1.4,3-3C7.7,3,6.3,1.6,4.7,1.6L4.7,1.6z"/>
</g>
<g id="Grupo_138_1_" transform="translate(0 9.738)">
	<path id="Caminho_121_1_" class="st0" d="M1.6,7.3H0v-2C0,2.4,2.4,0,5.3,0v1.6c-2,0-3.7,1.6-3.7,3.7V7.3z"/>
</g>
<g id="Grupo_139_1_" transform="translate(10.117 9.738)">
	<path id="Caminho_122_1_" class="st0" d="M5.3,7.3H3.7v-2c0-2-1.6-3.7-3.7-3.7V0c2.9,0,5.3,2.4,5.3,5.3L5.3,7.3z"/>
</g>
</svg>
