<svg version="1.1" xmlns="http://www.w3.org/2000/svg" xmlns:xlink="http://www.w3.org/1999/xlink" x="0px" y="0px" viewBox="0 0 41.6 45.9" style="overflow:visible;enable-background:new 0 0 41.6 45.9;" xml:space="preserve">
<style type="text/css">
	.st0{fill:#F0F0F0;}
	.st1{fill:url(#Caminho_53-2_2_);}
	.st2{fill:url(#Caminho_53-2_3_);}
</style>
<defs>
</defs>
<g id="Grupo_83_1_" transform="translate(0 40.876)">
	<path id="Caminho_66_1_" class="st0" d="M5.2,5C5,4.8,5,4.5,4.9,4.3C4.3,4.8,3.4,5,2.6,5C1,5,0,4.3,0,3.3V3c0-1.1,1.1-1.8,3.1-1.8
		c0.6,0,1.2,0.1,1.7,0.2V0.7c0-0.5-0.4-0.8-1.1-0.8c-0.6,0-1,0.2-1,0.6c0,0.1,0,0.2,0.1,0.3H0.3C0.2,0.7,0.2,0.5,0.2,0.4
		c0-1.2,1.3-2,3.6-2c2.3,0,3.6,0.8,3.6,2.4v2.5c0,0.5,0.1,1,0.3,1.4L5.2,5z M4.8,3.1V2.5c-0.3-0.1-0.7-0.2-1-0.2
		c-0.7,0-1.2,0.2-1.2,0.6V3c0,0.3,0.3,0.6,0.9,0.6C4,3.6,4.5,3.5,4.8,3.1L4.8,3.1z"/>
	<path id="Caminho_67_1_" class="st0" d="M14.2,5C14.1,4.6,14,4.2,14,3.8C13.4,4.6,12.5,5,11.5,5c-1.2,0.1-2.3-0.8-2.5-2
		c0-0.2,0-0.3,0-0.5v-4h2.6V2c-0.1,0.5,0.3,0.9,0.8,1c0.1,0,0.1,0,0.2,0c0.6,0,1.1-0.3,1.3-0.8v-3.7h2.6v4.6c0,0.5,0.1,1.1,0.3,1.6
		L14.2,5z"/>
	<path id="Caminho_68_1_" class="st0" d="M24.1,3v1.7C23.5,4.9,22.8,5,22.2,5c-2,0-3.3-1-3.3-2.6V0.3h-1.2l-0.1-1.5L19-1.4l0.5-1.5
		h1.9v1.5h2.6v1.7h-2.6v1.8c0,0.7,0.5,1.1,1.4,1.1C23.2,3.2,23.7,3.1,24.1,3z"/>
	<path id="Caminho_69_1_" class="st0" d="M25,2.1V1.3c0-1.8,1.5-2.9,3.8-2.9s3.8,1.1,3.8,2.9v0.8c0,1.8-1.5,2.9-3.8,2.9
		S25,3.9,25,2.1z M30.1,2.1V1.3c-0.1-0.7-0.7-1.2-1.4-1.1c-0.6,0.1-1.1,0.5-1.1,1.1v0.8c0.1,0.7,0.7,1.2,1.4,1.1
		C29.6,3.2,30,2.7,30.1,2.1z"/>
	<path id="Caminho_70_1_" class="st0" d="M41.5,0.9v4H39V1.4c0.1-0.5-0.3-0.9-0.8-1c-0.1,0-0.1,0-0.2,0c-0.5,0-1.1,0.3-1.3,0.8v3.7
		h-2.6V0.5c0-0.5-0.1-1.1-0.3-1.6l2.3-0.4c0.2,0.4,0.4,0.8,0.4,1.2c0.6-0.8,1.5-1.2,2.5-1.2c1.2-0.1,2.3,0.7,2.5,2
		C41.6,0.5,41.6,0.7,41.5,0.9z"/>
</g>
<g id="Grupo_82_1_" transform="translate(7 2.5)">
	<g id="Grupo_58_1_" transform="translate(0.386 27.15)">
		<g transform="matrix(1, 0, 0, 1, -7.39, -29.65)">
			<path id="Caminho_52-2_1_" class="st0" d="M20.8,34.4c-4.8,0-9.5-1.5-13.4-4.3l2.1-2.9c6.8,4.8,15.8,4.8,22.6,0.1l2.1,2.9
				C30.3,32.9,25.6,34.4,20.8,34.4z"/>
		</g>
	</g>
	<g transform="matrix(1, 0, 0, 1, -7, -2.5)">
		
			<linearGradient id="Caminho_53-2_2_" gradientUnits="userSpaceOnUse" x1="-1264.4806" y1="-28.5746" x2="-1264.4806" y2="-27.8156" gradientTransform="matrix(19.4749 0 0 -15.2791 24646.4453 -421.208)">
			<stop  offset="0" style="stop-color:#DC2C1B"/>
			<stop  offset="0.999" style="stop-color:#E26200"/>
		</linearGradient>
		<path id="Caminho_53-2_1_" class="st1" d="M15.2,12.9c-0.5-1-0.8-2-0.8-3.1c0-3.6,2.8-6.5,6.4-6.5c3.6,0,6.5,2.8,6.5,6.4
			c0,0.1,0,0.1,0,0.2c0,1.1-0.3,2.1-0.8,3.1l2.4,2.4c3-4.4,1.9-10.5-2.5-13.5S15.8-0.2,12.8,4.2c-2.3,3.3-2.3,7.7,0,11.1L15.2,12.9z
			"/>
	</g>
	<g transform="matrix(1, 0, 0, 1, -7, -2.5)">
		<path id="Caminho_54-2_1_" class="st0" d="M18.6,16.2l-2.2,2.2c2.8,1.4,6,1.4,8.8,0L23,16.2C22.8,16,22.5,16,22.3,16
			c-1,0.2-2,0.2-2.9,0C19.1,16,18.8,16,18.6,16.2z"/>
	</g>
	<g id="Grupo_60_1_" transform="translate(0 6.393)">
		<g id="Grupo_59_1_">
			<g transform="matrix(1, 0, 0, 1, -7, -8.89)">
				<path id="Caminho_55-2_1_" class="st0" d="M20.8,27.1c-4.8,0-9.3-2-12.6-5.6L7,20.2L20.8,6.4l13.7,13.7l-1.2,1.3
					C30.2,25.1,25.6,27.1,20.8,27.1z M12.2,20.3c4.9,4.2,12.2,4.2,17.1,0l-8.5-8.5L12.2,20.3z"/>
			</g>
		</g>
	</g>
</g>
</svg>